<?xml version="1.0" encoding="UTF-8"?>
<svg id="Capa_1" xmlns="http://www.w3.org/2000/svg" viewBox="0 0 15.66 19.27">
	<defs>
		<style>
			.cls-1{fill:#848584;stroke-width:0px;}
		</style>
	</defs>
	<g id="surface1">
		<path class="cls-1" d="m10.66.15C10.57.06,10.45,0,10.32,0H2.8C1.42,0,.27,1.14.27,2.53v14.21c0,1.39,1.14,2.53,2.53,2.53h10.2c1.39,0,2.53-1.14,2.53-2.53V5.46c0-.12-.06-.24-.13-.33L10.66.15Zm.13,1.49l3.18,3.34h-2.07c-.61,0-1.11-.49-1.11-1.11V1.64Zm2.22,16.7H2.8c-.87,0-1.6-.72-1.6-1.6V2.53c0-.87.73-1.6,1.6-1.6h7.06s0,2.94,0,2.94c0,1.13.91,2.04,2.04,2.04h2.7s0,10.83,0,10.83c0,.88-.73,1.6-1.6,1.6Z" />
		<path class="cls-1" d="m4.08,7.34h7.66c.26,0,.47-.21.47-.47s-.21-.47-.47-.47h-7.67c-.26,0-.47.21-.47.47s.21.47.47.47Z" />
		<path class="cls-1" d="m8.25,9.01c-.09-.09-.21-.15-.34-.15s-.25.06-.34.15l-2.73,2.93c-.18.19-.16.48.02.66.19.18.48.16.66-.02l1.92-2.06v5.08c0,.26.21.47.47.47s.47-.21.47-.47v-5.08s1.92,2.06,1.92,2.06c.18.19.47.2.66.02s.2-.47.02-.66l-2.72-2.93Z" />
	</g>
</svg>
