<?xml version="1.0" encoding="UTF-8"?><svg id="Capa_1" xmlns="http://www.w3.org/2000/svg" viewBox="0 0 37.28 37.52"><defs><style>.cls-1{fill:#28326d;stroke-width:0px;}</style></defs><path class="cls-1" d="m31.84,5.48C28.32,1.96,23.65.03,18.69.03S9.05,1.96,5.54,5.48C2.03,8.99.1,13.66.1,18.62s1.93,9.64,5.45,13.15c3.51,3.51,8.18,5.45,13.15,5.45s9.64-1.93,13.15-5.45c3.51-3.51,5.45-8.18,5.45-13.15s-1.93-9.64-5.45-13.15ZM8.17,31.21c.61-5.28,5.16-9.36,10.52-9.36,2.83,0,5.49,1.1,7.49,3.1,1.69,1.69,2.76,3.9,3.03,6.26-2.85,2.39-6.52,3.83-10.52,3.83s-7.67-1.44-10.52-3.83Zm10.52-11.61c-3.11,0-5.65-2.53-5.65-5.65s2.53-5.65,5.65-5.65,5.65,2.53,5.65,5.65-2.53,5.65-5.65,5.65Zm12.4,9.76c-.56-2.24-1.71-4.3-3.37-5.96-1.34-1.34-2.92-2.34-4.65-2.97,2.08-1.41,3.44-3.79,3.44-6.48,0-4.32-3.51-7.83-7.83-7.83s-7.83,3.51-7.83,7.83c0,2.69,1.37,5.07,3.45,6.48-1.59.58-3.06,1.47-4.33,2.65-1.83,1.71-3.11,3.88-3.7,6.27-2.5-2.88-4.01-6.64-4.01-10.74C2.27,9.57,9.64,2.21,18.69,2.21s16.41,7.36,16.41,16.41c0,4.11-1.51,7.86-4.02,10.74Z"/></svg>